<?xml version="1.0" encoding="utf-8"?>
<!-- Generator: Adobe Illustrator 26.3.1, SVG Export Plug-In . SVG Version: 6.00 Build 0)  -->
<svg version="1.1" id="Livello_1" xmlns="http://www.w3.org/2000/svg" xmlns:xlink="http://www.w3.org/1999/xlink" x="0px" y="0px"
	 viewBox="0 0 240 240" style="enable-background:new 0 0 240 240;" xml:space="preserve">
<style type="text/css">
	.st0{fill:#FFFFFF;}
	.st1{fill:#494949;}
	.st2{fill:#2D2D2D;}
	.st3{fill:#161616;}
</style>
<path class="st0" d="M162.7,215.7H77.3c-29.2,0-53-23.9-53-53V77.3c0-29.2,23.9-53,53-53h85.4c29.1,0,53,23.9,53,53v85.4
	C215.7,191.9,191.9,215.7,162.7,215.7z"/>
<g>
	<path class="st1" d="M95.7,125.4l10.4,28.8c0,0,1.3,2.7,2.7,2.7c1.4,0,22.1-21.5,22.1-21.5l23-44.5L96.1,118L95.7,125.4z"/>
	<path class="st2" d="M109.5,132.8l-2,21.2c0,0-0.8,6.5,5.7,0s12.7-11.5,12.7-11.5"/>
	<path class="st3" d="M95.9,126.5l-21.4-7c0,0-2.6-1-1.7-3.4c0.2-0.5,0.5-0.9,1.5-1.6c4.7-3.3,87.7-33.1,87.7-33.1s2.3-0.8,3.7-0.3
		c0.7,0.2,1.2,0.8,1.4,1.5c0.1,0.6,0.2,1.3,0.2,1.9c0,0.5-0.1,1.1-0.1,1.9c-0.5,8.2-15.6,69-15.6,69s-0.9,3.6-4.1,3.7
		c-1.6,0.1-3.2-0.6-4.3-1.7c-6.4-5.5-28.3-20.2-33.2-23.5c-0.2-0.2-0.4-0.4-0.4-0.7c-0.1-0.3,0.3-0.8,0.3-0.8s38.3-34,39.3-37.6
		c0.1-0.3-0.2-0.4-0.6-0.3c-2.5,0.9-46.6,28.8-51.5,31.8C96.7,126.5,96.3,126.5,95.9,126.5z"/>
</g>
</svg>
