<?xml version="1.0" encoding="utf-8"?>
<!-- Generator: Adobe Illustrator 26.3.1, SVG Export Plug-In . SVG Version: 6.00 Build 0)  -->
<svg version="1.1" id="Layer_1" xmlns="http://www.w3.org/2000/svg" xmlns:xlink="http://www.w3.org/1999/xlink" x="0px" y="0px"
	 viewBox="0 0 48 48" style="enable-background:new 0 0 48 48;" xml:space="preserve">
<style type="text/css">
	.st0{fill:#FFFFFF;}
	.st1{fill:#494949;}
	.st2{fill:#2D2D2D;}
	.st3{fill:#161616;}
</style>
<path class="st0" d="M30.9,44.3H17.8C9.9,44.3,3.4,37.9,3.4,30V16.8c0-7.9,6.5-14.4,14.4-14.4h13.1c7.9,0,14.4,6.5,14.4,14.4V30
	C45.3,37.9,38.8,44.3,30.9,44.3z"/>
<g>
	<path class="st1" d="M19.1,24.6l2.3,6.3c0,0,0.3,0.6,0.6,0.6s4.8-4.7,4.8-4.7l5-9.7L19.1,23L19.1,24.6z"/>
	<path class="st2" d="M22.1,26.2l-0.4,4.6c0,0-0.2,1.4,1.2,0c1.4-1.4,2.8-2.5,2.8-2.5"/>
	<path class="st3" d="M19.1,24.8l-4.7-1.5c0,0-0.6-0.2-0.4-0.7c0-0.1,0.1-0.2,0.3-0.4c1-0.7,19.2-7.2,19.2-7.2s0.5-0.2,0.8-0.1
		c0.2,0,0.3,0.2,0.3,0.3c0,0.1,0,0.3,0,0.4c0,0.1,0,0.2,0,0.4c-0.1,1.8-3.4,15.1-3.4,15.1s-0.2,0.8-0.9,0.8c-0.4,0-0.7-0.1-0.9-0.4
		c-1.4-1.2-6.2-4.4-7.3-5.1c0,0-0.1-0.1-0.1-0.1c0-0.1,0.1-0.2,0.1-0.2s8.4-7.4,8.6-8.2c0-0.1,0-0.1-0.1-0.1
		c-0.6,0.2-10.2,6.3-11.3,7C19.3,24.8,19.2,24.8,19.1,24.8z"/>
</g>
</svg>
